<?xml version="1.0" encoding="UTF-8"?>
<svg version="1.1" xmlns="http://www.w3.org/2000/svg" width="16" height="16">
<path d="M0 0 C5.28 0 10.56 0 16 0 C16 5.28 16 10.56 16 16 C10.72 16 5.44 16 0 16 C0 10.72 0 5.44 0 0 Z " fill="#AEBABF" transform="translate(0,0)"/>
<path d="M0 0 C3.96 0 7.92 0 12 0 C11.67 2.64 11.34 5.28 11 8 C8.03 8 5.06 8 2 8 C0.74335022 5.09399739 0 3.20395416 0 0 Z " fill="#FFD98C" transform="translate(1,2)"/>
<path d="M0 0 C5.28 0 10.56 0 16 0 C12.47320901 2.35119399 10.97120515 2.21443452 6.8125 2.125 C5.72582031 2.10695312 4.63914062 2.08890625 3.51953125 2.0703125 C2.27236328 2.03550781 2.27236328 2.03550781 1 2 C1.66 4.64 2.32 7.28 3 10 C5.97 10 8.94 10 12 10 C12 10.66 12 11.32 12 12 C7.545 12.495 7.545 12.495 3 13 C3 13.99 3 14.98 3 16 C2.01 16 1.02 16 0 16 C0 10.72 0 5.44 0 0 Z " fill="#FDFCFB" transform="translate(0,0)"/>
<path d="M0 0 C0.66 0 1.32 0 2 0 C2 4.62 2 9.24 2 14 C1.01 14 0.02 14 -1 14 C-1.027193 12.41676312 -1.04648306 10.83338938 -1.0625 9.25 C-1.07410156 8.36828125 -1.08570313 7.4865625 -1.09765625 6.578125 C-1.00826198 4.2181162 -0.66912821 2.25501476 0 0 Z " fill="#FAFAFB" transform="translate(14,2)"/>
<path d="M0 0 C1.65 0 3.3 0 5 0 C4.67 2.64 4.34 5.28 4 8 C1.03 8 -1.94 8 -5 8 C-5.33 6.35 -5.66 4.7 -6 3 C-5.34 4.32 -4.68 5.64 -4 7 C-1.69 7 0.62 7 3 7 C3 5.35 3 3.7 3 2 C2.01 2 1.02 2 0 2 C0 1.34 0 0.68 0 0 Z " fill="#FBBE48" transform="translate(8,2)"/>
</svg>
